<?xml version="1.0" encoding="iso-8859-1"?>
<!-- Generator: Adobe Illustrator 18.1.1, SVG Export Plug-In . SVG Version: 6.00 Build 0)  -->
<svg version="1.1" id="Capa_1" xmlns="http://www.w3.org/2000/svg" xmlns:xlink="http://www.w3.org/1999/xlink" x="0px" y="0px"
	 viewBox="0 0 258.34 258.34" style="enable-background:new 0 0 258.34 258.34;" xml:space="preserve">
<g>
	<polygon style="fill:#030104;" points="94.068,94.383 107.639,80.25 68.167,39.461 68.223,36.404 71.254,36.474 110.618,77.149 
		123.724,63.503 86.216,24.609 54.682,24.683 54.743,53.774 	"/>
	<path style="fill:#030104;" d="M178.242,150.248c11.265,0.535,19.779-0.75,25.052-4.241L165,106.3l-13.035,13.577l22.383,23.13
		l-3.088,2.992l-22.273-23.021l-13.559,14.12l37.263,38.482C176.322,170.298,178.081,161.697,178.242,150.248z"/>
	<path style="fill:#030104;" d="M208.676,119.153c14.344,27.952,3.412,38.115-24.941,36.771
		c-0.425,29.402-11.361,40.07-37.578,23.73c10.184,30.168,39.961,26.674,51.078-9.779
		C225.367,163.882,244.283,135.315,208.676,119.153z"/>
	<path style="fill:#030104;" d="M243.566,195.636l-6.555-6.773c-12.988-13.422-28.595-19.389-34.858-13.326
		c-6.264,6.061-0.812,21.854,12.176,35.275l6.555,6.773c12.987,13.422,28.595,19.389,34.858,13.327
		C262.005,224.85,256.555,209.057,243.566,195.636z"/>
	<path style="fill:#030104;" d="M55.048,146.486c5.271,3.49,13.783,4.775,25.048,4.242c0.165,11.447,1.923,20.053,5.555,25.33
		L203.598,54.252l0.061-29.672l-30.809,0.021L55.048,146.486L55.048,146.486z M187.087,36.951l3.032-0.068l0.057,3.058
		L87.08,146.475l-3.088-2.989L187.087,36.951z"/>
	<path style="fill:#030104;" d="M74.606,156.401c-28.354,1.345-39.285-8.817-24.941-36.77c-35.608,16.162-16.691,44.73,11.441,50.72
		c11.118,36.455,40.896,39.949,51.078,9.781C85.966,196.472,75.029,185.802,74.606,156.401z"/>
	<path style="fill:#030104;" d="M21.328,189.341l-6.555,6.773C1.785,209.536-3.666,225.329,2.598,231.391
		c6.264,6.061,21.87,0.094,34.858-13.327l6.555-6.773c12.988-13.421,18.439-29.216,12.175-35.276
		C49.922,169.954,34.316,175.919,21.328,189.341z"/>
</g>
<g>
</g>
<g>
</g>
<g>
</g>
<g>
</g>
<g>
</g>
<g>
</g>
<g>
</g>
<g>
</g>
<g>
</g>
<g>
</g>
<g>
</g>
<g>
</g>
<g>
</g>
<g>
</g>
<g>
</g>
</svg>
